User Type,Username,Date,Text
,ispgonewild,2011-06-01T18:32Z,Praised be thy name. I thank you deeply for the hard work and good spirit to put forward much needed and related information.
,pix611,2011-06-04T20:28Z,"r3dcat,  thanks for caring."
,austin4ever,2011-06-21T23:24Z,thanks a lot. you are really the only source for real 3D content. keep it up. thanks again
,blrfind34,2011-10-25T09:05Z,"
I tried on samsung 3d plasma, I am not able to play this video's too.

a bit research and i find out that the max frame rate for my TV is 8 to 30 fps

Thanks to r3dcat for providing this video. 
he used Frame Rate: 47.952431


How to make it work: ( reduce frame rate to 30 fps)
-------------------

1) download HD convertor software, i used

http://thepiratebay.org/torrent/6168821/WinX_HD_Video_Converter_4.1

2) after install

i tried different settings, but the one fastest i could find is to convert to avi using divx format

click +Add button to add the file downloaded.

4) choose to hd avi tab

5) leave default settings, change the following

videoquality : 8000 kbps ( to keep small file size)
format: divx
frame rate: 29.97

depending on your system cpu, it will take a hour or two

Now try , should work as for me. Enjoy..."
,minder_sas,2011-12-05T11:11Z,"I use MKV2AC3 audio remuxer very fast.took about 10 mins for this film.quicker than re n coding the full file.also removes dts-hd file,works well with my lg 3d smart tv via harddrive.software is free,and can be downloaded from here:-http://www.videohelp.com/tools/MKV2AC3#usercomments"
,Vívek,2012-01-22T16:10Z,Not working on Samsung 3D..
,Shah_Jahan,2012-02-09T14:44Z,"It has the deepest Out-Of-Screen effect I've ever seen at ~42:35

Starting near 42 minutes are 2 exceptional effects. A tortilla floats to 40% and a thrown orange extends to a whopping 80%, almost bouncing off your face!

The audio and video quality are great! And the 3D effects were just wonderful. And with its small size of just 2GBs, this one is a great download!

And since this had a framerate of 47.952431, the video appeared smoother than the 24FPS videos.

@ r3dcat: How did you encode it @48fps? Was the source 48FPS or did you frame interpolate it to double the FPS?

Thanks for uploading. And I hope to see more of your 3D releases, and hopefully now in 60FPS for an ultra-smooth and fluid playback! 



=========================



Here's some more info on it, if you need it:

General
Unique ID                                : 168348648403719580577546155723716462494 (0x7EA6C532C2870C1E037BA147C20E879E)
Complete name                            : IMAX Space Station 3D 1080p Half-SBS AC3.mkv
Format                                   : Matroska
Format version                           : Version 2
File size                                : 2.02 GiB
Duration                                 : 47mn 11s
Overall bit rate                         : 6 126 Kbps
Writing application                      : Lavf51.12.1
Writing library                          : Lavf51.12.1

Video
ID                                       : 1
Format                                   : AVC
Format/Info                              : Advanced Video Codec
Format profile                           : Baseline@L1.3
Format settings, CABAC                   : No
Format settings, ReFrames                : 1 frame
Format settings, GOP                     : M=1, N=12
Codec ID                                 : V_MPEG4/ISO/AVC
Duration                                 : 47mn 11s
Bit rate                                 : 5 940 Kbps
Width                                    : 1 920 pixels
Height                                   : 1 080 pixels
Display aspect ratio                     : 16:9
Frame rate                               : 47.952 fps
Color space                              : YUV
Chroma subsampling                       : 4:2:0
Bit depth                                : 8 bits
Scan type                                : Progressive
Bits/(Pixel*Frame)                       : 0.060
Stream size                              : 1.96 GiB (97%)
Default                                  : Yes
Forced                                   : No

Audio
ID                                       : 2
Format                                   : AC-3
Format/Info                              : Audio Coding 3
Mode extension                           : CM (complete main)
Codec ID                                 : A_AC3
Duration                                 : 47mn 11s
Bit rate mode                            : Constant
Bit rate                                 : 64.0 Kbps
Channel(s)                               : 2 channels
Channel positions                        : Front: L R
Sampling rate                            : 44.1 KHz
Bit depth                                : 16 bits
Compression mode                         : Lossy
Stream size                              : 21.6 MiB (1%)
Default                                  : Yes
Forced                                   : No
"
